<?xml version="1.0" encoding="UTF-8"?>
<svg width="475px" height="341px" viewBox="0 0 475 341" version="1.1" xmlns="http://www.w3.org/2000/svg" xmlns:xlink="http://www.w3.org/1999/xlink">
    <title>Group</title>
    <defs>
        <polygon id="path-1" points="5.47535889e-07 0.42296859 296.506221 0.42296859 296.506221 39.5394992 5.47535889e-07 39.5394992"></polygon>
        <path d="M14.3655188,10.8304852 L14.3655188,12.177428 C14.3653457,12.1776739 14.3651724,12.1779199 14.364999,12.1781658 C13.9060384,12.8290067 13.1591229,13.3170074 12.2983769,13.1541671 C11.7489756,13.0501158 10.8487267,12.1500719 10.3149186,11.4919473 C7.66459007,11.1126803 4.8333801,10.3208498 3.54797856,9.88539506 C0.704813789,8.92344067 -0.661152758,4.08921663 0.353966217,1.54516201 C0.746915497,0.560316325 2.37432846,0.132145168 4.27098444,0.132145168 C6.41037497,0.132145168 8.89229668,0.676853796 10.3310316,1.58418125 C12.1076198,2.70377339 11.9480491,6.96831648 13.1487274,9.44161621 C13.1487274,9.44161621 13.9758937,10.0696026 14.3655188,10.8304859 L14.3655188,10.8304852 Z" id="path-3"></path>
        <path d="M192.208334,0.4276509 C191.61891,0.4276509 191.027407,0.440137057 190.436943,0.464589116 L190.436943,0.464589116 C166.011715,1.48377173 126.298369,2.85724908 105.968961,5.62033171 L105.968961,5.62033171 C80.6346477,9.0644302 67.7868695,23.6659511 43.2878333,46.0083694 L43.2878333,46.0083694 C42.1479685,46.2674572 36.7709046,45.9620666 35.7323958,46.3517387 L35.7323958,46.3517387 C4.82662304,57.95294 2.67995567,72.9904358 0.705333563,81.4113087 L0.705333563,81.4113087 C-0.374757184,86.0187008 -0.877378817,97.9107255 5.04648752,110.799562 L5.04648752,110.799562 C8.65527965,118.653875 13.784931,119.038865 20.9661311,119.908734 L20.9661311,119.908734 C28.147851,120.779123 85.7840505,122.65881 97.8890714,122.65881 L97.8890714,122.65881 C109.237821,122.65881 134.106417,121.331636 136.865898,119.772947 L136.865898,119.772947 C139.140429,93.5280842 143.542397,70.3610591 155.924458,69.7258259 L155.924458,69.7258259 C169.316959,69.0375264 172.040056,100.43397 170.691242,115.955825 L170.691242,115.955825 C170.691242,115.955825 185.457507,112.002915 194.557193,110.628397 L194.557193,110.628397 C203.766032,109.237231 214.484296,107.385638 223.36048,106.03089 L223.36048,106.03089 C227.485927,105.40138 228.617995,94.0837182 230.314538,86.5675715 L230.314538,86.5675715 C232.331782,77.6306042 235.079308,69.5536209 241.603514,69.2092111 L241.603514,69.2092111 C249.547222,68.7909248 250.040488,88.2948233 250.040488,88.2948233 L250.040488,88.2948233 L249.988511,93.5280842 C252.93615,90.5199607 254.580196,63.537374 253.107676,60.9173619 L253.107676,60.9173619 C251.949099,58.8550649 243.8453,33.3531284 243.8453,33.3531284 L243.8453,33.3531284 C243.8453,33.3531284 241.995423,29.0792207 237.10175,25.2131941 L237.10175,25.2131941 C223.692615,9.30582925 208.083797,0.4276509 192.209893,0.4276509 L192.209893,0.4276509 C192.208854,0.4276509 192.209373,0.4276509 192.208334,0.4276509" id="path-5"></path>
        <path d="M66.7286093,4.33165619 C45.4422973,6.59165073 25.1846184,23.1311273 0.0982373201,46.3517387 L0.0982373201,46.3517387 C25.1659065,46.7814707 85.4337227,45.1494258 104.235514,43.0866085 L104.235514,43.0866085 C116.082727,24.1820456 129.132178,3.30050767 151.45388,0.464589116 L151.45388,0.464589116 C118.829734,0.980163376 83.9357335,2.50503538 66.7286093,4.33165619" id="path-7"></path>
        <path d="M41.0528043,0.423488847 C14.2667617,3.29582536 0.06341245,40.1227068 0.06341245,40.1227068 L0.06341245,40.1227068 C34.919469,37.0292613 74.9873013,28.2088314 80.2001165,26.7172558 L80.2001165,26.7172558 C82.3036426,26.1163595 82.3946031,24.9130061 83.2527503,21.3039862 L83.2527503,21.3039862 C71.2584413,6.89704133 53.335588,0.317876764 43.1651666,0.31683625 L43.1651666,0.31683625 C42.416172,0.31683625 41.7113582,0.352213697 41.0528043,0.423488847" id="path-9"></path>
        <path d="M0.400226119,13.0553182 L0.400226119,11.5968192 C0.997251125,10.7751258 2.26205723,10.0971395 2.26205723,10.0971395 C4.10049851,7.42250047 7.23161817,2.61949182 9.95211623,1.40833453 C11.9911903,0.501007076 15.2257451,0.0182089799 17.9940624,0.0182089799 C20.867374,0.0182089799 23.2380641,0.538465549 23.2489793,1.64401076 C23.2775669,4.6765863 21.3159391,9.53682316 16.9623106,10.5762958 C14.9939258,11.047128 10.6590091,11.9034703 6.60165187,12.3129122 C5.78352731,13.0251435 4.40612573,13.9980232 3.56357178,14.1103987 C2.2462688,14.2867222 1.10352392,13.7589653 0.400226119,13.0553182 L0.400226119,13.0553182 Z" id="path-11"></path>
        <path d="M15.3655643,0.864146161 L11.8955519,5.71501841 C11.8955519,5.71501841 6.43116594,16.2923547 5.27258929,25.7979625 L5.27258929,25.7979625 C4.11401264,35.3035702 3.43102937,44.9220737 3.43102937,44.9220737 L3.43102937,44.9220737 L2.64045284,48.191366 L0.0410621603,50.2016374 L9.79878285,65.9336757 L38.1644192,63.3667298 L46.1200828,15.5046863 L27.9830826,0.440137057" id="path-13"></path>
        <path d="M15.3655643,0.864146161 L11.8955519,5.71501841 C11.8955519,5.71501841 6.43116594,16.2923547 5.27258929,25.7979625 L5.27258929,25.7979625 C4.11401264,35.3035702 3.43102937,44.9220737 3.43102937,44.9220737 L3.43102937,44.9220737 L2.64045284,48.191366 L0.0410621603,50.2016374 L9.79878285,65.9336757 L38.1644192,63.3667298 L46.1200828,15.5046863 L27.9830826,0.440137057" id="path-15"></path>
        <path d="M15.3655643,0.864146161 L11.8955519,5.71501841 C11.8955519,5.71501841 6.43116594,16.2923547 5.27258929,25.7979625 L5.27258929,25.7979625 C4.11401264,35.3035702 3.43102937,44.9220737 3.43102937,44.9220737 L3.43102937,44.9220737 L2.64045284,48.191366 L0.0410621603,50.2016374 L9.79878285,65.9336757 L38.1644192,63.3667298 L46.1200828,15.5046863 L27.9830826,0.440137057" id="path-17"></path>
        <path d="M15.3655643,0.864146161 L11.8955519,5.71501841 C11.8955519,5.71501841 6.43116594,16.2923547 5.27258929,25.7979625 L5.27258929,25.7979625 C4.11401264,35.3035702 3.43102937,44.9220737 3.43102937,44.9220737 L3.43102937,44.9220737 L2.64045284,48.191366 L0.0410621603,50.2016374 L9.79878285,65.9336757 L38.1644192,63.3667298 L46.1200828,15.5046863 L27.9830826,0.440137057 L15.3655643,0.864146161 Z" id="path-19"></path>
        <path d="M15.3655643,0.864146161 L11.8955519,5.71501841 C11.8955519,5.71501841 6.43116594,16.2923547 5.27258929,25.7979625 L5.27258929,25.7979625 C4.11401264,35.3035702 3.43102937,44.9220737 3.43102937,44.9220737 L3.43102937,44.9220737 L2.64045284,48.191366 L0.0410621603,50.2016374 L9.79878285,65.9336757 L38.1644192,63.3667298 L46.1200828,15.5046863 L27.9830826,0.440137057" id="path-21"></path>
        <path d="M15.3655643,0.864146161 L11.8955519,5.71501841 C11.8955519,5.71501841 6.43116594,16.2923547 5.27258929,25.7979625 L5.27258929,25.7979625 C4.11401264,35.3035702 3.43102937,44.9220737 3.43102937,44.9220737 L3.43102937,44.9220737 L2.64045284,48.191366 L0.0410621603,50.2016374 L9.79878285,65.9336757 L38.1644192,63.3667298 L46.1200828,15.5046863 L27.9830826,0.440137057" id="path-23"></path>
        <polygon id="path-25" points="6.01026245e-07 0.46474677 325.369658 0.46474677 325.369658 43.4449625 6.01026245e-07 43.4449625"></polygon>
        <path d="M15.8941309,12.0872286 L15.8941309,13.5904674 C15.8939394,13.5907419 15.8937477,13.5910163 15.8935559,13.5912908 C15.385758,14.3176538 14.5593644,14.8622809 13.6070277,14.6805449 C12.9991655,14.5644198 12.0031225,13.559937 11.4125128,12.8254452 C8.48016697,12.402169 5.34769244,11.5184564 3.92551334,11.0324725 C0.779811909,9.95889523 -0.731504977,4.56371948 0.391631202,1.72445889 C0.826393594,0.625334081 2.62697699,0.147478976 4.72545314,0.147478976 C7.09249283,0.147478976 9.83851191,0.75539428 11.4303403,1.76800583 C13.3959724,3.01751274 13.2194221,7.77690314 14.5478627,10.5371986 C14.5478627,10.5371986 15.4630464,11.238055 15.8941309,12.0872294 L15.8941309,12.0872286 Z" id="path-27"></path>
        <path d="M210.93539,0.469603499 C210.288538,0.469603499 209.639404,0.48331455 208.991411,0.510165358 L208.991411,0.510165358 C182.186407,1.6293299 138.603749,3.13754552 116.293626,6.17168686 L116.293626,6.17168686 C88.4909645,9.95365178 74.391414,25.9875834 47.5054115,50.5217954 L47.5054115,50.5217954 C46.2544885,50.8062997 40.3535317,50.4709503 39.2138399,50.8988493 L39.2138399,50.8988493 C5.29688589,63.6381296 2.94106652,80.1508055 0.774054938,89.3977668 L0.774054938,89.3977668 C-0.411270163,94.4571447 -0.962862738,107.515778 5.53817199,121.669011 L5.53817199,121.669011 C9.49857246,130.293833 15.1280111,130.716591 23.0088829,131.671794 L23.0088829,131.671794 C30.8903251,132.627568 94.1420789,134.691653 107.426504,134.691653 L107.426504,134.691653 C119.880974,134.691653 147.172543,133.234282 150.200883,131.522686 L150.200883,131.522686 C152.697025,102.703199 157.527881,77.2634866 171.116338,76.5659369 L171.116338,76.5659369 C185.813685,75.8101152 188.802096,110.286553 187.321866,127.331103 L187.321866,127.331103 C187.321866,127.331103 203.526823,122.990413 213.513101,121.481055 L213.513101,121.481055 C223.619167,119.953415 235.381722,117.920181 245.122721,116.432532 L245.122721,116.432532 C249.650115,115.741266 250.892482,103.313341 252.754321,95.0598596 L252.754321,95.0598596 C254.968107,85.2461748 257.983327,76.3768387 265.143193,75.9986422 L265.143193,75.9986422 C273.860865,75.539322 274.40219,96.956555 274.40219,96.956555 L274.40219,96.956555 L274.345149,102.703199 C277.57998,99.3999786 279.384207,69.7703972 277.768217,66.8933617 L277.768217,66.8933617 C276.496759,64.6287531 267.603398,36.6250739 267.603398,36.6250739 L267.603398,36.6250739 C267.603398,36.6250739 265.573287,31.9318953 260.202817,27.6866112 L260.202817,27.6866112 C245.487217,10.2187321 228.357615,0.469603499 210.937101,0.469603499 L210.937101,0.469603499 C210.93596,0.469603499 210.93653,0.469603499 210.93539,0.469603499" id="path-29"></path>
        <path d="M73.3071041,4.76761126 C49.9222635,7.25506062 27.6674647,25.4591358 0.107922127,51.0167617 L0.107922127,51.0167617 C27.6469081,51.4897436 93.8562766,49.6934432 114.511658,47.4230158 L114.511658,47.4230158 C127.526838,26.6158226 141.86278,3.63268387 166.385085,0.511347209 L166.385085,0.511347209 C130.544661,1.07881091 92.2106069,2.75715208 73.3071041,4.76761126" id="path-31"></path>
        <path d="M45.1026468,0.46719695 C15.674172,3.63598609 0.0696680625,44.2637543 0.0696680625,44.2637543 L0.0696680625,44.2637543 C38.3642604,40.8510355 82.3847681,31.1202529 88.1118254,29.4747324 L88.1118254,29.4747324 C90.4228635,28.8118178 90.5227972,27.4842668 91.4656003,23.5027616 L91.4656003,23.5027616 C78.2880576,7.60888202 58.5971221,0.350684689 47.4233927,0.349536784 L47.4233927,0.349536784 C46.6005101,0.349536784 45.8261668,0.388565522 45.1026468,0.46719695" id="path-33"></path>
        <path d="M0.435512679,14.4625641 L0.435512679,12.846852 C1.08517533,11.9365874 2.46149504,11.1855203 2.46149504,11.1855203 C4.46202536,8.22257927 7.86920507,2.90184949 10.8295601,1.56014033 C13.0484123,0.555011133 16.5681466,0.0201717442 19.5805369,0.0201717442 C22.7071786,0.0201717442 25.2868842,0.596507293 25.2987618,1.82122033 C25.3298699,5.18068025 23.1952922,10.5648069 18.4578192,11.7163254 C16.3158886,12.237909 11.5987773,13.1865574 7.1836968,13.6401334 C6.29344101,14.4291368 4.79459867,15.5068843 3.87775964,15.6313728 C2.44431459,15.8267024 1.20081783,15.2420581 0.435512679,14.4625641 L0.435512679,14.4625641 Z" id="path-35"></path>
        <path d="M16.9081617,0.953159746 L13.0897838,6.30370849 C13.0897838,6.30370849 7.07681094,17.9705904 5.80192113,28.4553476 L5.80192113,28.4553476 C4.52703133,38.9401048 3.77548121,49.5493867 3.77548121,49.5493867 L3.77548121,49.5493867 L2.90553621,53.1554408 L0.0451845199,55.3727854 L10.7825135,72.7253426 L41.9958655,69.8939818 L50.7502232,17.1017861 L30.7923924,0.4854745" id="path-37"></path>
        <path d="M16.9081617,0.953159746 L13.0897838,6.30370849 C13.0897838,6.30370849 7.07681094,17.9705904 5.80192113,28.4553476 L5.80192113,28.4553476 C4.52703133,38.9401048 3.77548121,49.5493867 3.77548121,49.5493867 L3.77548121,49.5493867 L2.90553621,53.1554408 L0.0451845199,55.3727854 L10.7825135,72.7253426 L41.9958655,69.8939818 L50.7502232,17.1017861 L30.7923924,0.4854745" id="path-39"></path>
        <path d="M16.9081617,0.953159746 L13.0897838,6.30370849 C13.0897838,6.30370849 7.07681094,17.9705904 5.80192113,28.4553476 L5.80192113,28.4553476 C4.52703133,38.9401048 3.77548121,49.5493867 3.77548121,49.5493867 L3.77548121,49.5493867 L2.90553621,53.1554408 L0.0451845199,55.3727854 L10.7825135,72.7253426 L41.9958655,69.8939818 L50.7502232,17.1017861 L30.7923924,0.4854745" id="path-41"></path>
        <path d="M16.9081617,0.953159746 L13.0897838,6.30370849 C13.0897838,6.30370849 7.07681094,17.9705904 5.80192113,28.4553476 L5.80192113,28.4553476 C4.52703133,38.9401048 3.77548121,49.5493867 3.77548121,49.5493867 L3.77548121,49.5493867 L2.90553621,53.1554408 L0.0451845199,55.3727854 L10.7825135,72.7253426 L41.9958655,69.8939818 L50.7502232,17.1017861 L30.7923924,0.4854745 L16.9081617,0.953159746 Z" id="path-43"></path>
        <path d="M16.9081617,0.953159746 L13.0897838,6.30370849 C13.0897838,6.30370849 7.07681094,17.9705904 5.80192113,28.4553476 L5.80192113,28.4553476 C4.52703133,38.9401048 3.77548121,49.5493867 3.77548121,49.5493867 L3.77548121,49.5493867 L2.90553621,53.1554408 L0.0451845199,55.3727854 L10.7825135,72.7253426 L41.9958655,69.8939818 L50.7502232,17.1017861 L30.7923924,0.4854745" id="path-45"></path>
        <path d="M16.9081617,0.953159746 L13.0897838,6.30370849 C13.0897838,6.30370849 7.07681094,17.9705904 5.80192113,28.4553476 L5.80192113,28.4553476 C4.52703133,38.9401048 3.77548121,49.5493867 3.77548121,49.5493867 L3.77548121,49.5493867 L2.90553621,53.1554408 L0.0451845199,55.3727854 L10.7825135,72.7253426 L41.9958655,69.8939818 L50.7502232,17.1017861 L30.7923924,0.4854745" id="path-47"></path>
    </defs>
    <g id="Page-1" stroke="none" stroke-width="1" fill="none" fill-rule="evenodd">
        <g id="Desktop---Uber-Home" transform="translate(-811.000000, -1122.000000)">
            <g id="Group" transform="translate(811.000000, 1122.000000)">
                <circle id="Mask" fill="#00AEEF" opacity="0.100000001" cx="235.5" cy="170.5" r="170.5"></circle>
                <g id="Group-5" transform="translate(0.000000, 105.000000)">
                    <g id="Group-141">
                        <g id="Group-24" transform="translate(0.000000, 35.944006)">
                            <g id="Group-3" transform="translate(0.000000, 71.795407)">
                                <mask id="mask-2" fill="white">
                                    <use xlink:href="#path-1"></use>
                                </mask>
                                <g id="Clip-2"></g>
                                <path d="M295.965864,7.78824084 C296.632734,7.87044137 297.465932,8.43856155 293.14193,9.60029446 C269.903347,15.8485759 202.300477,27.0850772 178.485984,32.4255109 C149.502855,38.9261167 128.746193,39.5394992 104.809553,39.5394992 C80.873432,39.5394992 14.2248679,36.4757083 3.35119205,34.6313988 C-7.52144426,32.7870892 9.15966852,22.6920308 37.5440167,18.2708904 C67.5822864,13.5922231 197.085583,0.42296859 197.085583,0.42296859 C197.085583,0.42296859 292.226608,7.32729352 295.965864,7.78824084" id="Fill-1" fill="#0C1B24" opacity="0.200000003" mask="url(#mask-2)"></path>
                            </g>
                            <path d="M285.779017,79.0079834 C286.338294,79.0766573 287.037391,79.5537326 283.408847,80.5286934 C263.9064,85.7723594 206.354924,94.657301 186.369087,99.1393114 C162.044695,104.594722 144.625502,105.109776 124.53727,105.109776 C104.449557,105.109776 40.1753216,100.567416 31.0512056,99.0201726 C21.9260501,97.4718891 44.0840234,89.5182066 68.0856357,87.2602931 C92.0872481,85.0028999 202.79499,72.8262949 202.79499,72.8262949 C202.79499,72.8262949 282.640621,78.6214328 285.779017,79.0079834" id="Fill-4" fill="#000F1F" opacity="0.600000024"></path>
                            <path d="M34.8608385,65.4462474 C34.8608385,80.2985319 43.6652933,92.3383094 54.5259748,92.3383094 C65.3866563,92.3383094 74.1905914,80.2985319 74.1905914,65.4462474 C74.1905914,50.5939628 65.3866563,38.5541853 54.5259748,38.5541853 C43.6652933,38.5541853 34.8608385,50.5939628 34.8608385,65.4462474" id="Fill-6" fill="#0C2635"></path>
                            <polygon id="Fill-8" fill="#0C2635" points="54.3162979 38.5539772 66.1208893 38.5539772 64.7731149 93.1902816 54.3162979 92.3386216"></polygon>
                            <path d="M46.1486184,65.9538097 C46.1486184,80.9887043 54.6235364,93.1777954 65.0782743,93.1777954 C75.5335319,93.1777954 84.00845,80.9887043 84.00845,65.9538097 C84.00845,50.9183948 75.5335319,38.7298239 65.0782743,38.7298239 C54.6235364,38.7298239 46.1486184,50.9183948 46.1486184,65.9538097" id="Fill-10" fill="#0C2635"></path>
                            <path d="M52.3455741,65.9538097 C52.3455741,77.4650065 58.59274,86.7973688 66.2973527,86.7973688 C74.0019653,86.7973688 80.2491312,77.4650065 80.2491312,65.9538097 C80.2491312,54.4415723 74.0019653,45.1102505 66.2973527,45.1102505 C58.59274,45.1102505 52.3455741,54.4415723 52.3455741,65.9538097" id="Fill-12" fill="#F0F2F8"></path>
                            <path d="M54.3162979,65.9538097 C54.3162979,76.3168003 59.8155087,84.7184236 66.5970025,84.7184236 C73.379016,84.7184236 78.8782268,76.3168003 78.8782268,65.9538097 C78.8782268,55.5897786 73.379016,47.1891957 66.5970025,47.1891957 C59.8155087,47.1891957 54.3162979,55.5897786 54.3162979,65.9538097" id="Fill-14" fill="#162C30"></path>
                            <polygon id="Fill-16" fill="#F0F2F8" points="68.2926098 45.7669704 66.8705076 62.7471043 78.4339238 56.5971514 79.4017434 60.1931648 67.350779 66.6557919 76.8756409 78.1976838 75.2539454 81.3514792 65.3096258 69.4813053 59.9720647 84.0386043 57.6497137 81.4165112 62.7544159 66.6167726 52.8470003 62.4209034 53.5793621 58.1735288 63.2653539 62.4661657 64.6463939 45.5484626"></polygon>
                            <path d="M61.0972199,65.9538097 C61.0972199,69.2844922 62.9044747,71.9851441 65.1337862,71.9851441 C67.3630976,71.9851441 69.1703525,69.2844922 69.1703525,65.9538097 C69.1703525,62.6231271 67.3630976,59.9224753 65.1337862,59.9224753 C62.9044747,59.9224753 61.0972199,62.6231271 61.0972199,65.9538097" id="Fill-18" fill="#A6B3C6"></path>
                            <path d="M62.4558056,65.9538097 C62.4558056,67.5416327 63.3170715,68.8287475 64.3800097,68.8287475 C65.4424281,68.8287475 66.3036939,67.5416327 66.3036939,65.9538097 C66.3036939,64.3659866 65.4424281,63.0788719 64.3800097,63.0788719 C63.3170715,63.0788719 62.4558056,64.3659866 62.4558056,65.9538097" id="Fill-20" fill="#F0F2F8"></path>
                            <path d="M68.5456359,1.58376505 C70.322224,2.70387744 70.1631731,6.96790028 71.3633317,9.44172026 C71.3633317,9.44172026 73.4122815,10.9972874 72.5796033,12.1777496 C72.1206427,12.8285905 71.374247,13.3165912 70.5135009,13.1537509 C69.9635798,13.0502198 69.0638507,12.150176 68.5295229,11.4915311 C65.8791943,11.1127844 63.0479844,10.3204336 61.7625828,9.88549912 C58.9194181,8.92302446 57.5534515,4.08932068 58.5685705,1.5447458 C59.4048871,-0.550847655 65.8318949,-0.126838551 68.5456359,1.58376505" id="Fill-22" fill="#E5E7EB"></path>
                        </g>
                        <g id="Group-27" transform="translate(58.214708, 35.944006)">
                            <mask id="mask-4" fill="white">
                                <use xlink:href="#path-3"></use>
                            </mask>
                            <g id="Clip-26"></g>
                            <path d="M10.6380102,0.792194677 C11.6209032,5.5858387 13.7166327,10.4278666 7.13317294,8.35360365 C3.58883281,7.23713305 2.26860639,6.15708042 0.417690531,2.74003527 C-1.05586927,0.0196136726 -1.53354174,-3.85057494 -1.53354174,-3.85057494 L-2.17702218,10.142766 L12.8013104,13.886012 L14.3647911,12.7877504 L13.0450845,10.3878068 L13.1308472,8.35360365 L10.6380102,0.792194677 Z" id="Fill-25" fill="#231F20" mask="url(#mask-4)"></path>
                        </g>
                        <g id="Group-50" transform="translate(25.468935, 0.046303)">
                            <path d="M120.670514,103.372691 C120.670514,119.745686 129.844528,133.018991 141.161052,133.018991 C152.476536,133.018991 161.65107,119.745686 161.65107,103.372691 C161.65107,86.9991764 152.476536,73.726911 141.161052,73.726911 C129.844528,73.726911 120.670514,86.9991764 120.670514,103.372691" id="Fill-28" fill="#0C2635"></path>
                            <polygon id="Fill-30" fill="#0C2635" points="141.16048 73.7267029 155.13201 73.7267029 153.536823 133.957326 141.16048 133.019304"></polygon>
                            <path d="M220.337213,96.7968041 C220.337213,109.180992 224.332717,119.219862 229.260176,119.219862 C234.187636,119.219862 238.18262,109.180992 238.18262,96.7968041 C238.18262,84.4126168 234.187636,74.3742663 229.260176,74.3742663 C224.332717,74.3742663 220.337213,84.4126168 220.337213,96.7968041" id="Fill-32" fill="#0C2635"></path>
                            <polygon id="Fill-34" fill="#0C2635" points="229.260176 74.3744744 240.470666 74.3744744 240.682734 119.773103 229.260176 119.21955"></polygon>
                            <path d="M231.413393,97.0736847 C231.413393,109.609267 235.56327,119.772999 240.682526,119.772999 C245.801782,119.772999 249.952179,109.609267 249.952179,97.0736847 C249.952179,84.5365419 245.801782,74.3743703 240.682526,74.3743703 C235.56327,74.3743703 231.413393,84.5365419 231.413393,97.0736847" id="Fill-36" fill="#0C2635"></path>
                            <path d="M234.44825,97.0736847 C234.44825,106.671378 237.507121,114.452855 241.279642,114.452855 C245.052683,114.452855 248.111554,106.671378 248.111554,97.0736847 C248.111554,87.474951 245.052683,79.6939938 241.279642,79.6939938 C237.507121,79.6939938 234.44825,87.474951 234.44825,97.0736847" id="Fill-38" fill="#5B6F80"></path>
                            <path d="M235.413211,97.0736847 C235.413211,105.714626 238.106161,112.71936 241.426479,112.71936 C244.747836,112.71936 247.440786,105.714626 247.440786,97.0736847 C247.440786,88.4327433 244.747836,81.4280089 241.426479,81.4280089 C238.106161,81.4280089 235.413211,88.4327433 235.413211,97.0736847" id="Fill-40" fill="#000F1F"></path>
                            <polygon id="Fill-42" fill="#5B6F80" points="242.256038 80.2415638 241.043925 94.4003463 247.223 89.2716571 247.697034 92.2704159 241.279383 97.6587132 246.459972 107.282939 245.665757 109.911796 240.280377 100.014955 238.182568 112.153061 237.045822 109.966423 239.0298 97.6264573 234.693324 94.1272116 235.052488 90.5863454 239.279291 94.1657106 240.470614 80.059474"></polygon>
                            <path d="M238.302896,97.0736847 C238.302896,99.8508143 239.188591,102.102485 240.280636,102.102485 C241.371123,102.102485 242.255778,99.8508143 242.255778,97.0736847 C242.255778,94.2955146 241.371123,92.0443644 240.280636,92.0443644 C239.188591,92.0443644 238.302896,94.2955146 238.302896,97.0736847" id="Fill-44" fill="#5B6F80"></path>
                            <path d="M238.58664,97.0736847 C238.58664,98.3977377 239.008697,99.4699864 239.528991,99.4699864 C240.048765,99.4699864 240.470822,98.3977377 240.470822,97.0736847 C240.470822,95.7496317 240.048765,94.6763424 239.528991,94.6763424 C239.008697,94.6763424 238.58664,95.7496317 238.58664,97.0736847" id="Fill-46" fill="#0C2635"></path>
                            <path d="M249.988719,93.5279281 L250.040696,88.2946672 C250.040696,88.2946672 249.546911,68.7907687 241.603722,69.2095753 C235.078477,69.5534649 232.33199,77.6304481 230.313707,86.5674154 C228.617683,94.0830418 227.486655,105.400703 223.360687,106.030734 C214.484504,107.386523 203.765721,109.237075 194.556881,110.628241 C185.457195,112.003279 170.69093,115.955669 170.69093,115.955669 C172.040264,100.433814 169.317167,69.0378906 155.924146,69.7251495 C143.542605,70.3609031 139.140637,93.5279281 136.865586,119.772791 C134.106105,121.33148 109.238029,122.658654 97.8892793,122.658654 C85.7837387,122.658654 28.1475391,120.778967 20.966339,119.908578 C13.7846192,119.038709 8.65548756,118.654239 5.04617565,110.799926 C-0.877690681,97.9105694 -0.375069049,86.0185448 0.705541473,81.4116728 C2.68016358,72.9902798 4.82631118,57.9527839 35.7326037,46.3521029 C36.7711125,45.9624308 42.1481764,46.2673011 43.2875214,46.0082133 C67.7865577,23.665795 80.6353754,9.06427412 105.969169,5.62069589 C126.298057,2.85761326 166.011923,1.48361566 190.436632,0.464953296 C206.92023,-0.222825888 223.19384,8.71414145 237.101957,25.213038 C241.995631,29.0801051 243.844988,33.3534926 243.844988,33.3534926 C243.844988,33.3534926 251.948787,58.8549088 253.107884,60.9172058 C254.580404,63.5372179 252.936358,90.5203248 249.988719,93.5279281" id="Fill-48" fill="#E5E7EB"></path>
                        </g>
                        <g id="Group-53" transform="translate(25.468935, 0.046303)">
                            <mask id="mask-6" fill="white">
                                <use xlink:href="#path-5"></use>
                            </mask>
                            <g id="Clip-52"></g>
                            <path d="M151.345819,46.7586834 L230.194522,30.6463375 L238.182412,25.6492732 L243.845352,33.3532324 C243.243973,34.4634599 239.006254,37.5886412 236.247813,38.3804716 C218.733502,43.4071906 178.657873,49.5607853 164.132783,51.656899 L160.759969,48.2377729 L155.839786,48.8251425 L159.447539,52.2864095 C145.491602,54.0277082 128.990851,54.844511 151.345819,46.7586834" id="Fill-51" fill="#FFFFFF" mask="url(#mask-6)"></path>
                        </g>
                        <g id="Group-76" transform="translate(29.627128, 0.046303)">
                            <path d="M197.799129,99.0648106 C186.405679,101.005368 170.526578,104.228357 173.921223,105.443156 C177.315348,106.658476 191.16629,103.465661 200.187491,101.590656 C221.720696,97.11697 231.745581,93.2821589 197.799129,99.0648106" id="Fill-54" fill="#FFFFFF"></path>
                            <path d="M129.788393,124.32873 C131.462585,123.297581 132.385184,121.83514 132.707444,119.772843 C132.707444,119.772843 105.916204,123.067628 103.560587,121.520905 C96.0384155,116.581589 85.5706832,107.105636 67.6322367,106.527111 C58.5367083,106.234206 10.2834723,104.462733 4.61741393,104.7213 C-1.04916418,104.978827 4.73540267,123.516089 10.159766,124.185139 C23.7554993,125.862446 71.8008256,128.137528 83.8200838,127.794159 C95.6740538,127.455472 129.788393,124.32873 129.788393,124.32873" id="Fill-56" fill="#0C2635"></path>
                            <polygon id="Fill-58" fill="#162C30" points="232.6306 40.5095176 225.804406 42.4287441 226.235299 40.6681959 233.061493 38.7489694"></polygon>
                            <polygon id="Fill-60" fill="#0C2635" points="232.57171 40.2260298 225.745515 42.1462968 226.176408 40.3857486 233.002083 38.4649613"></polygon>
                            <polygon id="Fill-62" fill="#162C30" points="203.571429 47.7773458 194.095426 49.5300902 194.739946 47.556757 204.215949 45.8034924"></polygon>
                            <polygon id="Fill-64" fill="#0C2635" points="203.529327 47.4486477 194.053324 49.2024326 194.697324 47.2290994 204.172808 45.474274"></polygon>
                            <path d="M35.3592499,68.5982738 C34.1362213,69.7922626 32.4204467,70.0196148 31.5264351,69.1070847 C30.6324235,68.1940345 30.8985479,66.4855119 32.1215766,65.2920433 C33.3440854,64.0980545 35.05986,63.8696619 35.9543914,64.7827121 C36.848403,65.6962827 36.5822786,67.404285 35.3592499,68.5982738" id="Fill-66" fill="#0C2635"></path>
                            <path d="M166.327894,64.6897423 C169.365454,77.8028091 171.198698,101.563447 175.975942,100.925612 C181.770904,100.152511 211.046665,94.687736 214.823864,93.6571078 C218.601063,92.625439 223.301381,73.0726364 226.45693,65.0851373 C229.375462,57.6948927 239.506381,41.5398857 246.030586,80.2084755 C246.833637,84.9657015 247.122112,70.4427394 246.717728,65.2568219 C245.859061,54.2575576 242.889591,49.2677768 213.664768,51.9658274 C203.059815,52.9449502 164.560142,57.0596594 166.327894,64.6897423" id="Fill-68" fill="#0C1B24" opacity="0.100000001"></path>
                            <path d="M130.858867,75.4632153 C133.264382,70.233076 125.88047,70.2731358 108.840713,82.1849302 C98.3906535,89.4903729 86.2201411,97.4133602 92.2937024,102.359439 C97.1863367,106.344084 106.973165,111.906147 113.939698,111.573703 C120.906751,111.24178 121.935384,107.594781 122.647995,104.351502 C123.560198,100.201415 128.453872,80.6928343 130.858867,75.4632153" id="Fill-70" fill="#0C1B24" opacity="0.100000001"></path>
                            <path d="M18.9285124,95.4992322 C26.5328086,96.1474719 38.3872984,96.4440182 47.3804312,96.7249567 C58.8518474,97.0828932 71.8961002,94.3609109 75.9763276,83.859532 C78.0455486,78.534706 64.6187419,79.3889673 47.4724313,78.4670727 C36.325874,77.8677371 22.9702764,77.6216558 15.3077654,77.7522402 C7.65513018,77.8828246 -1.00846587,76.9484438 0.524348193,82.1702589 C1.80611132,86.5367723 9.06319843,94.6584976 18.9285124,95.4992322" id="Fill-72" fill="#0C2635" opacity="0.600000024"></path>
                            <path d="M34.9227436,46.3519989 C59.9909325,46.7817308 120.258749,45.1486454 139.06054,43.0868686 C150.907753,24.1817854 163.956684,3.3007678 186.278386,0.464849244 C153.65476,0.980423504 118.76076,2.50477525 101.553635,4.33139606 C80.2673233,6.5913906 60.0101642,23.1313874 34.9227436,46.3519989" id="Fill-74" fill="#0C2635"></path>
                        </g>
                        <g id="Group-79" transform="translate(64.451998, 0.046303)">
                            <mask id="mask-8" fill="white">
                                <use xlink:href="#path-7"></use>
                            </mask>
                            <g id="Clip-78"></g>
                            <path d="M0.119444107,47.1252562 C57.8476437,5.72011692 98.9773746,10.5975223 150.015561,0.206958063 C117.392454,0.722532323 92.9890563,1.64286619 75.7647795,3.30040362 C45.638668,6.20031374 25.1554071,23.9519881 0.119444107,47.1252562" id="Fill-77" fill="#6C8094" mask="url(#mask-8)"></path>
                        </g>
                        <g id="Group-84" transform="translate(178.802318, 4.728612)" fill="#0C2635">
                            <path d="M74.276614,95.2904013 C74.276614,95.2904013 59.9511178,98.6325295 46.718187,101.39197 C34.3558779,103.969842 27.8316723,105.774091 17.5718498,108.351963 C17.1419965,109.383111 16.1559849,111.016197 16.1559849,111.016197 L15.9886176,112.090006 C15.9886176,112.090006 42.6405585,106.266254 50.8872957,105.086832 C66.5122273,102.85233 70.9105564,102.554223 72.1304664,101.306128 C73.3498567,100.056992 74.276614,95.2904013 74.276614,95.2904013" id="Fill-80"></path>
                            <path d="M0.0636203597,40.1228629 C34.9191571,37.0294174 74.9869894,28.2084672 80.2003244,26.7174119 C82.3038505,26.1159953 82.3942912,24.9131621 83.253478,21.3041423 C70.3750331,5.83639427 50.667795,-0.608544109 41.0524925,0.422604411 C14.2664498,3.29546118 0.0636203597,40.1228629 0.0636203597,40.1228629" id="Fill-82"></path>
                        </g>
                        <g id="Group-87" transform="translate(178.802318, 4.728612)">
                            <mask id="mask-10" fill="white">
                                <use xlink:href="#path-9"></use>
                            </mask>
                            <g id="Clip-86"></g>
                            <path d="M0.70216294,38.0604098 C0.70216294,38.0604098 19.608429,14.693086 47.2333871,13.999584 C68.8643094,13.4569564 83.2532181,20.2197715 83.2532181,20.2197715 C83.2532181,20.2197715 82.0894437,-5.24886852 56.3341133,-5.24886852 C30.5782631,-5.24886852 12.3778504,0.594653258 7.9140297,8.84384141 C3.44968926,17.0935498 0.70216294,38.0604098 0.70216294,38.0604098" id="Fill-85" fill="#6C8094" mask="url(#mask-10)"></path>
                        </g>
                        <g id="Group-106" transform="translate(35.864418, 4.728612)">
                            <path d="M223.222843,24.3470189 C223.145917,24.4864477 223.089781,24.586337 222.572606,24.7346101 C220.103678,25.4405982 208.786635,28.0221113 193.811421,30.7914371 C181.567621,33.0550734 163.706621,36.0299004 146.280152,37.7441458 C147.870661,34.3109727 150.843769,28.4893017 155.12151,22.5573363 C159.006822,17.1700796 163.181129,12.7713103 167.527481,9.48328876 C172.864002,5.44661804 178.476524,3.08829502 184.209633,2.47335175 C184.793859,2.41040071 185.431102,2.37866506 186.102131,2.37866506 C191.302471,2.37866506 198.037185,4.16158432 204.578543,7.27011732 C209.868285,9.78399706 217.445034,14.3315597 223.947928,21.8461456 C223.677646,23.004757 223.4609,23.917287 223.222843,24.3470189 M186.102131,0.316888276 C185.354695,0.316888276 184.648842,0.352265723 183.990288,0.423020616 C157.204246,3.29535713 143.001416,40.1227589 143.001416,40.1227589 C177.856953,37.0293133 217.925305,28.2083632 223.13812,26.7178281 C225.241646,26.1158913 225.332607,24.9130581 226.191274,21.3040383 C214.195405,6.89553259 196.272552,0.316888276 186.102131,0.316888276" id="Fill-88" fill="#162C30"></path>
                            <path d="M186.179317,0.422812514 L194.085082,32.8379183 L199.695005,37.8833665 C200.596294,57.4751884 200.523005,77.4098593 197.769242,90.5213654 C197.131479,93.5596637 200.344723,95.8061316 200.344723,95.8061316 C200.344723,95.8061316 200.290666,97.2149864 199.757378,99.0587757" id="Stroke-90" stroke="#BBBDBF" stroke-width="0.670761004" stroke-linecap="round" stroke-linejoin="round"></path>
                            <path d="M218.786519,13.9779413 L223.138588,26.7174639 L227.903358,31.7447032 C227.903358,31.7447032 228.597256,44.3317906 228.096194,48.0531858 C227.595652,51.7740608 229.078567,54.6162224 229.319742,56.8611295 C229.884217,62.1209234 229.489709,64.8262576 229.489709,64.8262576" id="Stroke-92" stroke="#BBBDBF" stroke-width="0.670761004" stroke-linejoin="round"></path>
                            <path d="M150.299669,39.4022035 L155.787965,45.0209745 C162.484216,63.1956174 165.102838,91.1120647 165.961505,96.1502293 C166.505708,99.3420033 167.764602,101.735184 167.764602,101.735184 C167.764602,101.735184 168.004737,103.997259 167.293686,106.462235" id="Stroke-94" stroke="#BBBDBF" stroke-width="0.670761004" stroke-linecap="round" stroke-linejoin="round"></path>
                            <path d="M115.996081,48.2993712 C115.996081,48.2993712 132.575838,42.7008903 143.001468,40.123019" id="Stroke-96" stroke="#BBBDBF" stroke-width="0.670761004" stroke-linejoin="round"></path>
                            <path d="M132.822782,38.4043514 C135.054693,40.4666485 135.226738,42.1850559 135.226738,42.1850559" id="Stroke-98" stroke="#BBBDBF" stroke-width="0.670761004" stroke-linejoin="round"></path>
                            <path d="M69.1884926,66.3059193 C69.1884926,66.3059193 37.7203241,67.7709618 26.5592132,67.5987569 C15.398622,67.4270722 0.138052022,65.9391384 0.138052022,65.9391384" id="Stroke-100" stroke="#BBBDBF" stroke-width="0.670761004" stroke-linejoin="round"></path>
                            <path d="M108.165995,58.8496022 C108.165995,58.8496022 119.516303,58.4521262 125.869503,61.5195589 C131.545437,64.2602705 134.826772,66.9921377 134.826772,66.9921377 L137.420965,69.6922693" id="Stroke-102" stroke="#BBBDBF" stroke-width="0.670761004" stroke-linejoin="round"></path>
                            <path d="M157.048625,30.5431186 C154.328127,31.7537556 151.196488,36.5567643 149.358046,39.2314033 C149.358046,39.2314033 146.220689,40.9128725 147.496215,42.1890619 C148.19895,42.892969 149.341414,43.4205092 150.659561,43.2446625 C151.502115,43.132287 152.879516,42.1594073 153.697641,41.4476963 C157.755518,41.0377341 162.089915,40.1813918 164.0583,39.7110798 C168.411409,38.671087 170.373556,33.8113704 170.344968,30.7787948 C170.324697,28.6077642 161.2037,28.6941267 157.048625,30.5431186" id="Fill-104" fill="#E5E7EB"></path>
                        </g>
                        <g id="Group-109" transform="translate(182.960512, 33.862980)">
                            <mask id="mask-12" fill="white">
                                <use xlink:href="#path-11"></use>
                            </mask>
                            <g id="Clip-108"></g>
                            <path d="M8.75304918,1.94196169 C4.85682192,7.37344027 1.39252701,11.1629891 11.4725077,8.92068331 C16.8989501,7.71368807 18.9208717,6.54571207 21.7546805,2.85137018 C24.0105005,-0.0901604634 24.7428623,-4.27354353 24.7428623,-4.27354353 L25.7278344,10.8549972 L2.79487775,14.9020731 L0.399758322,13.7143273 L2.42116011,11.1198078 L2.28861769,8.92068331 L8.75304918,1.94196169 Z" id="Fill-107" fill="#231F20" mask="url(#mask-12)"></path>
                        </g>
                        <g id="Group-114" transform="translate(31.706225, 52.592216)" fill="#BDDBF4">
                            <path d="M64.5226877,19.0311414 C64.5226877,19.0311414 70.8062377,12.8926341 83.0666711,9.71646776 C95.3265847,6.5403014 120.154118,0.435610825 120.154118,0.435610825 C120.154118,0.435610825 115.621168,13.2568137 101.62105,15.8060709 C87.6209325,18.3542876 64.5226877,19.0311414 64.5226877,19.0311414" id="Fill-110"></path>
                            <path d="M8.01096758,18.6104619 C8.01096758,18.6104619 -0.40261708,18.6104619 0.112479133,14.4858678 C0.627575346,10.3612737 7.8394421,5.72058515 7.8394421,5.72058515 C7.8394421,5.72058515 6.85239093,12.7242791 8.01096758,18.6104619" id="Fill-112"></path>
                        </g>
                        <g id="Group-133" transform="translate(160.090448, 71.321453)">
                            <g id="Group-117">
                                <mask id="mask-14" fill="white">
                                    <use xlink:href="#path-13"></use>
                                </mask>
                                <g id="Clip-116"></g>
                                <path d="M-1.5073971,32.656921 C-1.5073971,49.2317751 7.83554379,62.6689617 19.3610165,62.6689617 C30.8864892,62.6689617 40.22943,49.2317751 40.22943,32.656921 C40.22943,16.082067 30.8864892,2.64488034 19.3610165,2.64488034 C7.83554379,2.64488034 -1.5073971,16.082067 -1.5073971,32.656921" id="Fill-115" fill="#0C2635" mask="url(#mask-14)"></path>
                            </g>
                            <g id="Group-120">
                                <mask id="mask-16" fill="white">
                                    <use xlink:href="#path-15"></use>
                                </mask>
                                <g id="Clip-119"></g>
                                <path d="M5.32430682,32.656921 C5.32430682,45.3475395 12.2113147,55.6350929 20.7049446,55.6350929 C29.1985745,55.6350929 36.0850626,45.3475395 36.0850626,32.656921 C36.0850626,19.9663025 29.1985745,9.67874916 20.7049446,9.67874916 C12.2113147,9.67874916 5.32430682,19.9663025 5.32430682,32.656921" id="Fill-118" fill="#5B6F80" mask="url(#mask-16)"></path>
                            </g>
                            <g id="Group-123">
                                <mask id="mask-18" fill="white">
                                    <use xlink:href="#path-17"></use>
                                </mask>
                                <g id="Clip-122"></g>
                                <path d="M7.49628719,32.656921 C7.49628719,44.0817553 13.5584135,53.3433627 21.035365,53.3433627 C28.5117969,53.3433627 34.5739231,44.0817553 34.5739231,32.656921 C34.5739231,21.2320868 28.5117969,11.9704793 21.035365,11.9704793 C13.5584135,11.9704793 7.49628719,21.2320868 7.49628719,32.656921" id="Fill-121" fill="#000F1F" mask="url(#mask-18)"></path>
                            </g>
                            <g id="Group-126">
                                <mask id="mask-20" fill="white">
                                    <use xlink:href="#path-19"></use>
                                </mask>
                                <g id="Clip-125"></g>
                                <polygon id="Fill-124" fill="#5B6F80" mask="url(#mask-20)" points="22.9042131 10.4032064 21.3360544 29.1215175 34.084036 22.3420542 35.1511323 26.305889 21.8662241 33.4308027 32.3661823 46.1552378 30.5786789 49.631072 19.6156019 36.546099 13.7317581 52.5944534 11.1718703 49.7033876 16.7984258 33.3881416 5.87693073 28.7625405 6.68414003 24.0797111 17.361861 28.8124851 18.8847994 10.1618074"></polygon>
                            </g>
                            <g id="Group-129">
                                <mask id="mask-22" fill="white">
                                    <use xlink:href="#path-21"></use>
                                </mask>
                                <g id="Clip-128"></g>
                                <path d="M14.9720953,32.656921 C14.9720953,36.3294122 16.9643897,39.3058 19.4224018,39.3058 C21.8798941,39.3058 23.8721886,36.3294122 23.8721886,32.656921 C23.8721886,28.9849502 21.8798941,26.0085623 19.4224018,26.0085623 C16.9643897,26.0085623 14.9720953,28.9849502 14.9720953,32.656921" id="Fill-127" fill="#5B6F80" mask="url(#mask-22)"></path>
                            </g>
                            <g id="Group-132">
                                <mask id="mask-24" fill="white">
                                    <use xlink:href="#path-23"></use>
                                </mask>
                                <g id="Clip-131"></g>
                                <path d="M16.4699805,32.656921 C16.4699805,34.4070641 17.4190882,35.8268443 18.5906592,35.8268443 C19.7622302,35.8268443 20.7118576,34.4070641 20.7118576,32.656921 C20.7118576,30.9067779 19.7622302,29.487518 18.5906592,29.487518 C17.4190882,29.487518 16.4699805,30.9067779 16.4699805,32.656921" id="Fill-130" fill="#0C2635" mask="url(#mask-24)"></path>
                            </g>
                        </g>
                        <g id="Group-140" transform="translate(64.451998, 0.046303)" fill="#E5E7EB">
                            <path d="M0.0978734782,46.3519989 C0.662868012,46.3618837 1.84535427,46.3780117 1.84535427,46.3780117 C1.84535427,46.3780117 9.46472399,37.8567294 21.9637337,29.0617921 C35.3676703,19.6300607 36.3859079,19.6139328 44.0187917,16.1209302 C51.2795173,12.7975312 107.725954,9.49962482 130.953622,10.1900053 C132.808696,10.2451525 149.53399,0.708849575 151.453516,0.464849244 C118.82989,0.980423504 83.9358895,2.50477525 66.7287652,4.33139606 C45.4424532,6.5913906 25.1852941,23.1313874 0.0978734782,46.3519989" id="Fill-134"></path>
                            <polygon id="Fill-136" points="158.024189 1.79894316 166.412305 37.4333966 165.151853 37.74451 156.52672 2.19329764"></polygon>
                            <polygon id="Fill-138" points="190.559818 17.1762186 195.000249 31.2371929 194.21487 31.5852445 189.536902 17.6080315"></polygon>
                        </g>
                    </g>
                    <g id="Group-141-Copy" transform="translate(148.395529, 9.234554)">
                        <g id="Group-24" transform="translate(0.000000, 39.562647)">
                            <g id="Group-3" transform="translate(0.000000, 78.886906)">
                                <mask id="mask-26" fill="white">
                                    <use xlink:href="#path-25"></use>
                                </mask>
                                <g id="Clip-2"></g>
                                <path d="M324.7767,8.55751432 C325.508487,8.64783411 326.422793,9.27206963 321.677871,10.5485512 C296.177124,17.4139986 221.993444,29.760371 195.860725,35.6282991 C164.056231,42.7709939 141.279009,43.4449625 115.012253,43.4449625 C88.746067,43.4449625 15.6095896,40.0785496 3.67741429,38.0520707 C-8.25362025,36.0255919 10.0513177,24.933407 41.198744,20.0755742 C74.1610931,14.9347775 216.270905,0.46474677 216.270905,0.46474677 C216.270905,0.46474677 320.673446,8.05103752 324.7767,8.55751432" id="Fill-1" fill="#0C1B24" opacity="0.200000003" mask="url(#mask-26)"></path>
                            </g>
                            <path d="M313.598214,86.8118956 C314.211934,86.8873526 314.979084,87.4115504 310.997319,88.4828117 C289.596404,94.244414 226.442571,104.006954 204.51121,108.93167 C177.818957,114.925931 158.704091,115.491859 136.660367,115.491859 C114.617213,115.491859 44.0861936,110.500833 34.0738893,108.800763 C24.0604443,107.09955 48.3753885,98.3602526 74.713441,95.8793165 C101.051493,93.3989522 222.536096,80.0196187 222.536096,80.0196187 C222.536096,80.0196187 310.15431,86.3871639 313.598214,86.8118956" id="Fill-4" fill="#000F1F" opacity="0.600000024"></path>
                            <path d="M38.2543714,71.9106164 C38.2543714,88.2299163 47.9158971,101.458907 59.8338131,101.458907 C71.7517291,101.458907 81.4126844,88.2299163 81.4126844,71.9106164 C81.4126844,55.5913165 71.7517291,42.3623255 59.8338131,42.3623255 C47.9158971,42.3623255 38.2543714,55.5913165 38.2543714,71.9106164" id="Fill-6" fill="#0C2635"></path>
                            <polygon id="Fill-8" fill="#0C2635" points="59.6037251 42.3620968 72.5574361 42.3620968 71.0784623 102.395032 59.6037251 101.45925"></polygon>
                            <path d="M50.6409618,72.4683125 C50.6409618,88.9882595 59.9408718,102.381313 71.4133275,102.381313 C82.8863536,102.381313 92.1862637,88.9882595 92.1862637,72.4683125 C92.1862637,55.9477939 82.8863536,42.5553126 71.4133275,42.5553126 C59.9408718,42.5553126 50.6409618,55.9477939 50.6409618,72.4683125" id="Fill-10" fill="#0C2635"></path>
                            <path d="M57.441161,72.4683125 C57.441161,85.1165131 64.296458,95.3706675 72.7510773,95.3706675 C81.2056965,95.3706675 88.0609935,85.1165131 88.0609935,72.4683125 C88.0609935,59.8189687 81.2056965,49.5659576 72.7510773,49.5659576 C64.296458,49.5659576 57.441161,59.8189687 57.441161,72.4683125" id="Fill-12" fill="#F0F2F8"></path>
                            <path d="M59.6037251,72.4683125 C59.6037251,83.8548942 65.6382574,93.0863771 73.0798965,93.0863771 C80.522106,93.0863771 86.5566383,83.8548942 86.5566383,72.4683125 C86.5566383,61.0805876 80.522106,51.850248 73.0798965,51.850248 C65.6382574,51.850248 59.6037251,61.0805876 59.6037251,72.4683125" id="Fill-14" fill="#162C30"></path>
                            <polygon id="Fill-16" fill="#F0F2F8" points="74.940563 50.2875441 73.3800261 68.9448689 86.0690846 62.1874623 87.1311166 66.1386673 73.9070495 73.2396321 84.3591103 85.9215597 82.5795507 89.3868671 71.6672 76.344232 65.8100533 92.3394096 63.2616327 89.4583226 68.8632529 73.1967588 57.9913985 68.586448 58.7950522 63.9195444 69.4239282 68.636181 70.9394057 50.0474535"></polygon>
                            <path d="M67.0447369,72.4683125 C67.0447369,76.127979 69.0279192,79.0953842 71.4742432,79.0953842 C73.9205673,79.0953842 75.9037496,76.127979 75.9037496,72.4683125 C75.9037496,68.8086461 73.9205673,65.8412408 71.4742432,65.8412408 C69.0279192,65.8412408 67.0447369,68.8086461 67.0447369,72.4683125" id="Fill-18" fill="#A6B3C6"></path>
                            <path d="M68.5355743,72.4683125 C68.5355743,74.2129708 69.4806802,75.6272186 70.6470903,75.6272186 C71.8129299,75.6272186 72.7580358,74.2129708 72.7580358,72.4683125 C72.7580358,70.7236543 71.8129299,69.3094064 70.6470903,69.3094064 C69.4806802,69.3094064 68.5355743,70.7236543 68.5355743,72.4683125" id="Fill-20" fill="#F0F2F8"></path>
                            <path d="M75.2182199,1.74019941 C77.1677503,2.97094946 76.9932165,7.65614568 78.3102047,10.3743141 C78.3102047,10.3743141 80.5586098,12.0835303 79.6448744,13.3805911 C79.1412362,14.0957181 78.3221825,14.6319204 77.377647,14.4529957 C76.7741938,14.3392385 75.7868805,13.350294 75.2005384,12.6265924 C72.2922132,12.2104354 69.1853988,11.3398212 67.7748696,10.8619266 C64.6549366,9.80438475 63.1559999,4.49323808 64.2699358,1.69732609 C65.1876638,-0.605256925 72.2403094,-0.139366867 75.2182199,1.74019941" id="Fill-22" fill="#E5E7EB"></path>
                        </g>
                        <g id="Group-27" transform="translate(63.889814, 39.562647)">
                            <mask id="mask-28" fill="white">
                                <use xlink:href="#path-27"></use>
                            </mask>
                            <g id="Clip-26"></g>
                            <path d="M11.7699841,0.884119039 C12.8574652,6.23400597 15.1761979,11.6378911 7.8922026,9.32293569 C3.97071483,8.07691254 2.51000521,6.87153319 0.46213632,3.05798236 C-1.16822265,0.021889596 -1.69672349,-4.29738638 -1.69672349,-4.29738638 L-2.40867566,11.3197081 L14.1634776,15.4973114 L15.8933258,14.2716101 L14.4331913,11.5931829 L14.5280799,9.32293569 L11.7699841,0.884119039 Z" id="Fill-25" fill="#231F20" mask="url(#mask-28)"></path>
                        </g>
                        <g id="Group-50" transform="translate(28.049187, 0.000000)">
                            <path d="M132.427566,113.455806 C132.427566,131.425845 142.495414,145.993847 154.914518,145.993847 C167.332481,145.993847 177.4009,131.425845 177.4009,113.455806 C177.4009,95.485196 167.332481,80.9183356 154.914518,80.9183356 C142.495414,80.9183356 132.427566,95.485196 132.427566,113.455806" id="Fill-28" fill="#0C2635"></path>
                            <polygon id="Fill-30" fill="#0C2635" points="154.913891 80.9181072 170.246681 80.9181072 168.496074 147.023708 154.913891 145.99419"></polygon>
                            <path d="M241.804895,106.238498 C241.804895,119.830656 246.189685,130.848732 251.597231,130.848732 C257.004778,130.848732 261.388998,119.830656 261.388998,106.238498 C261.388998,92.6463398 257.004778,81.6288348 251.597231,81.6288348 C246.189685,81.6288348 241.804895,92.6463398 241.804895,106.238498" id="Fill-32" fill="#0C2635"></path>
                            <polygon id="Fill-34" fill="#0C2635" points="251.597231 81.6290632 263.89997 81.6290632 264.1327 131.455937 251.597231 130.848389"></polygon>
                            <path d="M253.960238,106.542386 C253.960238,120.300706 258.514442,131.455823 264.132472,131.455823 C269.750502,131.455823 274.305277,120.300706 274.305277,106.542386 C274.305277,92.7823527 269.750502,81.628949 264.132472,81.628949 C258.514442,81.628949 253.960238,92.7823527 253.960238,106.542386" id="Fill-36" fill="#0C2635"></path>
                            <path d="M257.290785,106.542386 C257.290785,117.076251 260.647685,125.616745 264.787766,125.616745 C268.928418,125.616745 272.285318,117.076251 272.285318,106.542386 C272.285318,96.0073783 268.928418,87.4674558 264.787766,87.4674558 C260.647685,87.4674558 257.290785,96.0073783 257.290785,106.542386" id="Fill-38" fill="#5B6F80"></path>
                            <path d="M258.349763,106.542386 C258.349763,116.026176 261.30509,123.714162 264.948909,123.714162 C268.593869,123.714162 271.549196,116.026176 271.549196,106.542386 C271.549196,97.058595 268.593869,89.3706091 264.948909,89.3706091 C261.30509,89.3706091 258.349763,97.058595 258.349763,106.542386" id="Fill-40" fill="#000F1F"></path>
                            <polygon id="Fill-42" fill="#5B6F80" points="265.859293 88.0684366 264.529083 103.608286 271.310192 97.9793376 271.830411 101.270599 264.787481 107.184479 270.472821 117.747465 269.601224 120.632744 263.691141 109.770552 261.388941 123.092625 260.14144 120.692699 262.318719 107.149077 257.559736 103.30851 257.953894 99.4222624 262.592519 103.350764 263.899913 87.8685855"></polygon>
                            <path d="M261.520992,106.542386 C261.520992,109.5904 262.492982,112.061702 263.691426,112.061702 C264.88816,112.061702 265.859008,109.5904 265.859008,106.542386 C265.859008,103.493229 264.88816,101.022499 263.691426,101.022499 C262.492982,101.022499 261.520992,103.493229 261.520992,106.542386" id="Fill-44" fill="#5B6F80"></path>
                            <path d="M261.832382,106.542386 C261.832382,107.995589 262.295561,109.172426 262.866547,109.172426 C263.436964,109.172426 263.900142,107.995589 263.900142,106.542386 C263.900142,105.089183 263.436964,103.911203 262.866547,103.911203 C262.295561,103.911203 261.832382,105.089183 261.832382,106.542386" id="Fill-46" fill="#0C2635"></path>
                            <path d="M274.345377,102.650771 L274.402419,96.9070508 C274.402419,96.9070508 273.860523,75.5007152 265.143421,75.9603727 C257.982415,76.3378057 254.968335,85.202629 252.753408,95.0113205 C250.89214,103.260031 249.650914,115.681633 245.122949,116.373118 C235.38195,117.861152 223.618825,119.89221 213.512759,121.419072 C203.52648,122.928234 187.321523,127.266144 187.321523,127.266144 C188.802324,110.230266 185.813913,75.7719416 171.115996,76.5262367 C157.528109,77.2240026 152.697253,102.650771 150.200541,131.455594 C147.172201,133.166319 119.881202,134.622948 107.426733,134.622948 C94.1417367,134.622948 30.8899828,132.559914 23.009111,131.604626 C15.1276688,130.649909 9.49880063,130.227937 5.53782974,121.607503 C-0.963204988,107.460901 -0.411612412,94.4089122 0.774283105,89.3526797 C2.94129468,80.1098523 5.29654364,63.6055783 39.2140681,50.8733509 C40.3537599,50.4456696 46.2547167,50.7802774 47.5050692,50.4959179 C74.3910718,25.9741893 88.4917631,9.94841592 116.293854,6.16894632 C138.603407,3.13634879 182.186636,1.62832957 208.991069,0.510305481 C227.080681,-0.244560633 244.939846,9.56413082 260.203045,27.6723525 C265.573515,31.9166186 267.603056,36.6068382 267.603056,36.6068382 C267.603056,36.6068382 276.496417,64.5956977 277.768445,66.8591541 C279.384435,69.7347257 277.580208,99.3498021 274.345377,102.650771" id="Fill-48" fill="#E5E7EB"></path>
                        </g>
                        <g id="Group-53" transform="translate(28.049187, 0.000000)">
                            <mask id="mask-30" fill="white">
                                <use xlink:href="#path-29"></use>
                            </mask>
                            <g id="Clip-52"></g>
                            <path d="M166.091598,51.3457153 L252.622612,33.6527465 L261.38877,28.1654696 L267.603455,36.6251881 C266.943484,37.8443291 262.29288,41.2760909 259.26568,42.1456001 C240.044932,47.6654407 196.064693,54.4227037 180.124409,56.7244464 L176.422978,52.9699036 L171.023417,53.6148943 L174.982677,57.4157119 C159.666999,59.3278322 141.558562,60.2247635 166.091598,51.3457153" id="Fill-51" fill="#FFFFFF" mask="url(#mask-30)"></path>
                        </g>
                        <g id="Group-76" transform="translate(32.204622, 0.000000)">
                            <path d="M217.185546,108.793323 C204.675417,110.92445 187.239995,114.463948 190.967352,115.798045 C194.694137,117.132713 209.902619,113.626353 219.807994,111.567216 C243.451681,106.654198 254.459111,102.442795 217.185546,108.793323" id="Fill-54" fill="#FFFFFF"></path>
                            <path d="M142.509035,136.538248 C144.347316,135.405837 145.36034,133.799779 145.714185,131.534957 C145.714185,131.534957 116.297118,135.153302 113.710626,133.454685 C105.451201,128.030311 93.9575199,117.623786 74.2609149,116.988448 C64.2739281,116.666779 11.2913619,114.72134 5.06996959,115.0053 C-1.15199343,115.288117 5.19952248,135.645803 11.1555311,136.380556 C26.0837907,138.222581 78.8380699,140.721084 92.0353431,140.343995 C105.051128,139.972047 142.509035,136.538248 142.509035,136.538248" id="Fill-56" fill="#0C2635"></path>
                            <polygon id="Fill-58" fill="#162C30" points="255.430872 44.4876947 247.935638 46.595396 248.408763 44.6619557 255.903997 42.5542544"></polygon>
                            <polygon id="Fill-60" fill="#0C2635" points="255.36621 44.1763674 247.870976 46.2852114 248.344101 44.3517711 255.838764 42.2423558"></polygon>
                            <polygon id="Fill-62" fill="#162C30" points="223.523593 52.4692492 213.118841 54.3941192 213.826531 52.2269978 224.231283 50.3015564"></polygon>
                            <polygon id="Fill-64" fill="#0C2635" points="223.477365 52.1082718 213.072613 54.0342845 213.779732 51.8671631 224.183914 49.9400077"></polygon>
                            <path d="M38.8248324,75.3348655 C37.4819339,76.6461083 35.5979952,76.8957872 34.6163609,75.8936435 C33.6347267,74.8909285 33.9269341,73.014623 35.2698326,71.7039516 C36.6121603,70.3927089 38.496099,70.1418873 39.478304,71.1446023 C40.4599382,72.1478887 40.1677308,74.0236228 38.8248324,75.3348655" id="Fill-66" fill="#0C2635"></path>
                            <path d="M182.629796,71.0425025 C185.965069,85.4433186 187.97799,111.537335 193.223455,110.836862 C199.586386,109.98784 231.731482,103.986405 235.878887,102.854565 C240.026292,101.721583 245.187291,80.2486263 248.652117,71.4767267 C251.856696,63.3607341 262.980552,45.6192486 270.144199,88.0852298 C271.025958,93.3096322 271.342706,77.3604642 270.898688,71.6652714 C269.955863,59.5858405 266.695353,54.1060458 234.606187,57.0690544 C222.961836,58.1443306 180.688785,62.6631187 182.629796,71.0425025" id="Fill-68" fill="#0C1B24" opacity="0.100000001"></path>
                            <path d="M143.684428,82.8739684 C146.325709,77.1302111 138.218095,77.1742049 119.50826,90.2557794 C108.033984,98.2786423 94.6706316,106.979695 101.339466,112.411496 C106.711631,116.787448 117.457672,122.895725 125.107,122.530634 C132.756898,122.166114 133.886348,118.160967 134.668802,114.599186 C135.670412,110.041547 141.043717,88.6171545 143.684428,82.8739684" id="Fill-70" fill="#0C1B24" opacity="0.100000001"></path>
                            <path d="M20.7837078,104.877593 C29.133306,105.589492 42.1496617,105.91516 52.0242172,106.223688 C64.6199541,106.616775 78.9426824,103.627484 83.4228154,92.094833 C85.6948421,86.2470904 70.9520657,87.1852431 52.1252343,86.1728152 C39.8861958,85.5146228 25.2216077,85.2443753 16.8080892,85.3877836 C8.40541432,85.5311918 -1.10730624,84.5050516 0.575739891,90.2396674 C1.98312943,95.0349877 9.95148823,103.954295 20.7837078,104.877593" id="Fill-72" fill="#0C2635" opacity="0.600000024"></path>
                            <path d="M38.3455437,50.9039282 C65.8706817,51.3758613 132.045385,49.5824012 152.689952,47.3181507 C165.698317,26.5565218 180.026182,3.62491481 204.535648,0.510499075 C168.71456,1.07670454 130.400577,2.75075299 111.506971,4.75675439 C88.1343744,7.23868834 65.8917983,25.402971 38.3455437,50.9039282" id="Fill-74" fill="#0C2635"></path>
                        </g>
                        <g id="Group-79" transform="translate(70.642396, 0.000000)">
                            <mask id="mask-32" fill="white">
                                <use xlink:href="#path-31"></use>
                            </mask>
                            <g id="Clip-78"></g>
                            <path d="M0.131219602,51.868129 C63.5506012,6.29581219 108.73514,11.664099 164.804968,0.227787144 C128.965686,0.795250844 102.156459,1.80821077 83.2341126,3.63256934 C50.1379936,6.82433792 27.6353736,26.3626113 0.131219602,51.868129" id="Fill-77" fill="#6C8094" mask="url(#mask-32)"></path>
                        </g>
                        <g id="Group-84" transform="translate(196.344306, 5.205611)" fill="#0C2635">
                            <path d="M81.6039718,104.615955 C81.6039718,104.615955 65.8652712,108.285159 51.3269171,111.314651 C37.7450712,114.144805 30.5772555,116.125627 19.3053056,118.95578 C18.8330475,120.087842 17.7497663,121.880748 17.7497663,121.880748 L17.5658883,123.059646 C17.5658883,123.059646 46.8470323,116.665955 55.9073067,115.37111 C73.0736315,112.917929 77.905854,112.590648 79.2461076,111.220408 C80.5857902,109.849026 81.6039718,104.615955 81.6039718,104.615955" id="Fill-80"></path>
                            <path d="M0.0698964823,44.0494695 C38.3639178,40.6532852 82.3844254,30.9690766 88.1120538,29.3320998 C90.4230919,28.6718258 90.5224546,27.3512779 91.4663997,23.3890629 C77.3175015,6.40757045 55.6661524,-0.668099013 45.1023042,0.463962408 C15.6738293,3.61797006 0.0698964823,44.0494695 0.0698964823,44.0494695" id="Fill-82"></path>
                        </g>
                        <g id="Group-87" transform="translate(196.344306, 5.205611)">
                            <mask id="mask-34" fill="white">
                                <use xlink:href="#path-33"></use>
                            </mask>
                            <g id="Clip-86"></g>
                            <path d="M0.771431029,41.9886084 C0.771431029,41.9886084 21.5427925,16.2095531 51.8929416,15.4444751 C75.6577456,14.8458431 91.4661142,22.3066455 91.4661142,22.3066455 C91.4661142,22.3066455 90.1875339,-5.790602 61.8914506,-5.790602 C33.5947963,-5.790602 13.5989203,0.656027167 8.69474551,9.75661051 C3.7899997,18.8577678 0.771431029,41.9886084 0.771431029,41.9886084" id="Fill-85" fill="#6C8094" mask="url(#mask-34)"></path>
                        </g>
                        <g id="Group-106" transform="translate(39.476633, 5.205611)">
                            <path d="M244.776609,26.7379818 C244.692255,26.891103 244.630699,27.0008017 244.063586,27.1636358 C241.356266,27.9389545 228.946482,30.7739812 212.525303,33.8152645 C199.099276,36.3011978 179.513668,39.5681634 160.404549,41.4507537 C162.148633,37.6804309 165.408816,31.2870514 170.099604,24.7725461 C174.360071,18.8562418 178.937437,14.0254979 183.70346,10.4145811 C189.555261,5.98149509 195.709711,3.39157645 201.996393,2.71624359 C202.637031,2.64711054 203.335804,2.61225833 204.071625,2.61225833 C209.774096,2.61225833 217.159095,4.57026654 224.332068,7.98406841 C230.132573,10.74482 238.44091,15.7389693 245.571706,23.9915139 C245.275326,25.263905 245.037652,26.2660487 244.776609,26.7379818 M204.071625,0.348007819 C203.25202,0.348007819 202.478011,0.386859456 201.755869,0.464562728 C172.383442,3.61897279 156.809228,44.0629549 156.809228,44.0629549 C195.030317,40.6657221 238.967555,30.9785237 244.683705,29.3416128 C246.990342,28.6805636 247.090085,27.359608 248.031663,23.3961697 C234.877507,7.57269814 215.224074,0.348007819 204.071625,0.348007819" id="Fill-88" fill="#162C30"></path>
                            <path d="M204.156265,0.464334189 L212.825388,36.0627174 L218.976989,41.6036463 C219.965304,63.119454 219.884939,85.0117797 216.86528,99.4108818 C216.165936,102.747552 219.689442,105.214631 219.689442,105.214631 C219.689442,105.214631 219.630166,106.76184 219.045385,108.786696" id="Stroke-90" stroke="#BBBDBF" stroke-width="0.670761004" stroke-linecap="round" stroke-linejoin="round"></path>
                            <path d="M239.911925,15.3506243 L244.684218,29.3412129 L249.909061,34.8621447 C249.909061,34.8621447 250.66996,48.6853283 250.120517,52.7721777 C249.571643,56.8584557 251.197745,59.9797276 251.462207,62.4450924 C252.081186,68.2214166 251.648585,71.1924241 251.648585,71.1924241" id="Stroke-92" stroke="#BBBDBF" stroke-width="0.670761004" stroke-linejoin="round"></path>
                            <path d="M164.81218,43.2716385 L170.83041,49.4421925 C178.173231,69.4016493 181.0447,100.05959 181.986278,105.59252 C182.583028,109.097737 183.963476,111.725936 183.963476,111.725936 C183.963476,111.725936 184.226799,114.210156 183.447091,116.917201" id="Stroke-94" stroke="#BBBDBF" stroke-width="0.670761004" stroke-linecap="round" stroke-linejoin="round"></path>
                            <path d="M127.196334,53.0425394 C127.196334,53.0425394 145.376985,46.8942679 156.809285,44.0632406" id="Stroke-96" stroke="#BBBDBF" stroke-width="0.670761004" stroke-linejoin="round"></path>
                            <path d="M145.647774,42.1757938 C148.095191,44.4406157 148.283849,46.3277768 148.283849,46.3277768" id="Stroke-98" stroke="#BBBDBF" stroke-width="0.670761004" stroke-linejoin="round"></path>
                            <path d="M75.8691375,72.8173938 C75.8691375,72.8173938 41.3624918,74.4263086 29.1236956,74.2371926 C16.8854693,74.0486478 0.151381935,72.4145937 0.151381935,72.4145937" id="Stroke-100" stroke="#BBBDBF" stroke-width="0.670761004" stroke-linejoin="round"></path>
                            <path d="M118.610197,64.6288401 C118.610197,64.6288401 131.056459,64.1923305 138.023106,67.5609959 C144.247092,70.570855 147.845263,73.5710013 147.845263,73.5710013 L150.689944,76.5362953" id="Stroke-102" stroke="#BBBDBF" stroke-width="0.670761004" stroke-linejoin="round"></path>
                            <path d="M172.212796,33.5425603 C169.229614,34.8720861 165.795592,40.1467671 163.779636,43.0840651 C163.779636,43.0840651 160.339345,44.9306605 161.738032,46.3321761 C162.508621,47.1052094 163.761398,47.6845559 165.206822,47.4914404 C166.13073,47.3680293 167.64113,46.2996093 168.53825,45.5180058 C172.987944,45.0677839 177.740858,44.1273458 179.899305,43.6108475 C184.672737,42.4687237 186.824344,37.1317658 186.792996,33.8013807 C186.770768,31.4171472 176.769073,31.5119909 172.212796,33.5425603" id="Fill-104" fill="#E5E7EB"></path>
                        </g>
                        <g id="Group-109" transform="translate(201.019170, 36.959841)">
                            <mask id="mask-36" fill="white">
                                <use xlink:href="#path-35"></use>
                            </mask>
                            <g id="Clip-108"></g>
                            <path d="M9.52477541,2.1512877 C5.2850312,8.16823083 1.51530132,12.366259 12.4839992,9.88225275 C18.3888724,8.54515428 20.5890599,7.25128097 23.6727159,3.15872224 C26.1274237,-0.0998789506 26.9243553,-4.7341931 26.9243553,-4.7341931 L27.996169,12.0250683 L3.0412925,16.5083826 L0.435003638,15.1926085 L2.63462547,12.3184231 L2.49039724,9.88225275 L9.52477541,2.1512877 Z" id="Fill-107" fill="#231F20" mask="url(#mask-36)"></path>
                        </g>
                        <g id="Group-114" transform="translate(34.801769, 57.782287)" fill="#BDDBF4">
                            <path d="M70.8722881,21.1009079 C70.8722881,21.1009079 77.7741948,14.294796 91.2411628,10.7731999 C104.70756,7.25160381 131.978341,0.482986475 131.978341,0.482986475 C131.978341,0.482986475 126.999308,14.6985827 111.621456,17.525089 C96.2436035,20.3504416 70.8722881,21.1009079 70.8722881,21.1009079" id="Fill-110"></path>
                            <path d="M8.79931731,20.6344766 C8.79931731,20.6344766 -0.442238145,20.6344766 0.123548069,16.0613048 C0.689334284,11.488133 8.61091221,6.34273783 8.61091221,6.34273783 C8.61091221,6.34273783 7.52672652,14.1081313 8.79931731,20.6344766" id="Fill-112"></path>
                        </g>
                        <g id="Group-133" transform="translate(175.567131, 78.084171)">
                            <g id="Group-117">
                                <mask id="mask-38" fill="white">
                                    <use xlink:href="#path-37"></use>
                                </mask>
                                <g id="Clip-116"></g>
                                <path d="M-1.65872944,36.0208307 C-1.65872944,54.3030199 8.62217872,69.1243383 21.3047299,69.1243383 C33.9872811,69.1243383 44.2681892,54.3030199 44.2681892,36.0208307 C44.2681892,17.7386414 33.9872811,2.91732301 21.3047299,2.91732301 C8.62217872,2.91732301 -1.65872944,17.7386414 -1.65872944,36.0208307" id="Fill-115" fill="#0C2635" mask="url(#mask-38)"></path>
                            </g>
                            <g id="Group-120">
                                <mask id="mask-40" fill="white">
                                    <use xlink:href="#path-39"></use>
                                </mask>
                                <g id="Clip-119"></g>
                                <path d="M5.85883075,36.0208307 C5.85883075,50.0186788 13.4372471,61.3659279 22.7835792,61.3659279 C32.1299113,61.3659279 39.7077557,50.0186788 39.7077557,36.0208307 C39.7077557,22.0229826 32.1299113,10.6757335 22.7835792,10.6757335 C13.4372471,10.6757335 5.85883075,22.0229826 5.85883075,36.0208307" id="Fill-118" fill="#5B6F80" mask="url(#mask-40)"></path>
                            </g>
                            <g id="Group-123">
                                <mask id="mask-42" fill="white">
                                    <use xlink:href="#path-41"></use>
                                </mask>
                                <g id="Clip-122"></g>
                                <path d="M8.24886307,36.0208307 C8.24886307,48.6225092 14.9195853,58.8381322 23.1471716,58.8381322 C31.3741859,58.8381322 38.0449082,48.6225092 38.0449082,36.0208307 C38.0449082,23.4191522 31.3741859,13.2035292 23.1471716,13.2035292 C14.9195853,13.2035292 8.24886307,23.4191522 8.24886307,36.0208307" id="Fill-121" fill="#000F1F" mask="url(#mask-42)"></path>
                            </g>
                            <g id="Group-126">
                                <mask id="mask-44" fill="white">
                                    <use xlink:href="#path-43"></use>
                                </mask>
                                <g id="Clip-125"></g>
                                <polygon id="Fill-124" fill="#5B6F80" mask="url(#mask-44)" points="25.2036392 11.4748153 23.4780481 32.1212539 37.5058397 24.6434546 38.6800652 29.0155943 24.0614432 36.874428 35.6155253 50.9095761 33.6485688 54.7434474 21.5848739 40.3106234 15.1103326 58.0120795 12.2934496 54.8232122 18.4848727 36.8273725 6.46693431 31.7252995 7.3551819 26.5601033 19.1048729 31.7803888 20.7807039 11.2085503"></polygon>
                            </g>
                            <g id="Group-129">
                                <mask id="mask-46" fill="white">
                                    <use xlink:href="#path-45"></use>
                                </mask>
                                <g id="Clip-128"></g>
                                <path d="M16.4751911,36.0208307 C16.4751911,40.0716161 18.6674982,43.3545944 21.3722779,43.3545944 C24.0764856,43.3545944 26.2687928,40.0716161 26.2687928,36.0208307 C26.2687928,31.9706191 24.0764856,28.6876408 21.3722779,28.6876408 C18.6674982,28.6876408 16.4751911,31.9706191 16.4751911,36.0208307" id="Fill-127" fill="#5B6F80" mask="url(#mask-46)"></path>
                            </g>
                            <g id="Group-132">
                                <mask id="mask-48" fill="white">
                                    <use xlink:href="#path-47"></use>
                                </mask>
                                <g id="Clip-131"></g>
                                <path d="M18.1234537,36.0208307 C18.1234537,37.9512517 19.1678453,39.51728 20.457034,39.51728 C21.7462227,39.51728 22.7911862,37.9512517 22.7911862,36.0208307 C22.7911862,34.0904096 21.7462227,32.5249552 20.457034,32.5249552 C19.1678453,32.5249552 18.1234537,34.0904096 18.1234537,36.0208307" id="Fill-130" fill="#0C2635" mask="url(#mask-48)"></path>
                            </g>
                        </g>
                        <g id="Group-140" transform="translate(70.642396, 0.000000)" fill="#E5E7EB">
                            <path d="M0.10743333,51.017048 C0.727614052,51.0279277 2.02560038,51.0456789 2.02560038,51.0456789 C2.02560038,51.0456789 10.3891967,41.6667809 24.1090549,31.9866862 C38.8222292,21.605708 39.9399238,21.5879568 48.3183542,17.7434046 C56.2882756,14.0855255 118.248152,10.4557048 143.744598,11.2155679 C145.780867,11.2762653 164.139814,0.78019101 166.246831,0.511633517 C130.436672,1.07909722 92.134379,2.75686577 73.2465383,4.76732496 C49.8810727,7.25477431 27.6452831,25.4594221 0.10743333,51.017048" id="Fill-134"></path>
                            <polygon id="Fill-136" points="173.459299 1.97999594 182.666729 41.2008422 181.283161 41.5432673 171.815563 2.41403982"></polygon>
                            <polygon id="Fill-138" points="209.172865 18.9049014 214.047018 34.381028 213.184927 34.7641089 208.050036 19.3801737"></polygon>
                        </g>
                    </g>
                </g>
            </g>
        </g>
    </g>
</svg>